<?xml version="1.0" encoding="UTF-8" ?>
<!DOCTYPE svg PUBLIC "-//W3C//DTD SVG 1.1//EN" "http://www.w3.org/Graphics/SVG/1.1/DTD/svg11.dtd">
<svg width="640pt" height="640pt" viewBox="0 0 640 640" version="1.1" xmlns="http://www.w3.org/2000/svg">
<g id="#ffffffff">
<path fill="#ffffff" opacity="1.00" d=" M 56.61 134.83 C 59.37 134.27 62.19 133.99 65.00 134.00 C 128.68 134.00 192.37 134.00 256.05 134.00 C 269.38 133.90 282.60 139.49 291.86 149.07 C 300.92 158.27 306.17 171.10 306.09 184.02 C 306.09 273.34 306.09 362.65 306.09 451.97 C 306.02 460.32 306.77 468.95 303.72 476.92 C 298.17 493.50 281.54 505.56 264.02 505.50 C 195.31 505.49 126.61 505.53 57.90 505.48 C 39.28 505.31 22.87 488.63 23.01 470.01 C 23.00 371.65 22.99 273.30 23.01 174.94 C 23.12 155.89 37.90 138.31 56.61 134.83 M 146.21 224.28 C 140.91 224.78 136.55 229.75 136.73 235.07 C 136.71 292.69 136.72 350.31 136.72 407.92 C 136.34 413.66 141.25 419.09 147.03 419.15 C 157.35 419.23 167.68 419.17 178.01 419.19 C 182.20 419.40 186.36 416.94 188.17 413.15 C 189.64 410.34 189.23 407.09 189.29 404.05 C 189.28 349.03 189.28 294.02 189.29 239.00 C 189.23 236.26 189.57 233.37 188.43 230.78 C 186.77 226.71 182.45 223.98 178.07 224.19 C 167.45 224.24 156.82 224.07 146.21 224.28 Z" />
<path fill="#ffffff" opacity="1.00" d=" M 332.43 134.01 C 400.92 134.03 469.40 134.21 537.89 134.27 C 564.27 160.57 590.56 186.96 616.90 213.30 C 616.90 284.72 616.92 356.15 616.89 427.57 C 590.96 453.54 564.98 479.46 539.08 505.47 C 470.20 505.55 401.32 505.48 332.44 505.50 C 332.43 381.67 332.45 257.84 332.43 134.01 M 451.44 225.70 C 448.45 227.30 446.49 230.61 446.57 234.01 C 446.56 292.32 446.55 350.63 446.57 408.94 C 446.41 413.99 451.00 418.52 456.05 418.30 C 468.01 418.33 479.97 418.31 491.92 418.31 C 497.08 418.72 501.94 414.23 501.82 409.05 C 501.86 350.67 501.85 292.29 501.83 233.91 C 501.95 229.07 497.74 224.63 492.88 224.60 C 481.25 224.50 469.61 224.60 457.98 224.55 C 455.75 224.52 453.41 224.54 451.44 225.70 Z" />
</g>
</svg>
